<svg width="1781" height="1781" viewBox="0 0 1781 1781" fill="none" xmlns="http://www.w3.org/2000/svg">
<rect width="1781" height="1781" rx="890.5" fill="black"/>
<path d="M466.747 851.362C463.091 855.126 465.621 861.45 470.868 861.45H536.613C542.767 861.45 548.829 859.701 553.635 855.857C557.93 852.661 562.024 849.265 566.119 845.57C568.389 843.679 570.658 841.698 572.843 839.542C573.087 839.302 573.339 839.141 573.601 838.919C573.81 838.742 574.013 838.487 574.218 838.304C576.696 836.083 578.998 833.686 581.299 831.288C584.895 827.693 588.39 823.998 591.786 820.203C594.083 817.706 596.28 815.209 598.377 812.612C600.774 809.816 603.071 807.02 605.268 804.123C607.366 801.627 609.363 799.03 611.361 796.433C613.757 793.237 616.154 790.042 618.451 786.746C620.349 784.149 622.246 781.453 624.044 778.756C627.04 774.462 629.937 770.167 632.733 765.673C634.73 762.677 636.628 759.681 638.525 756.685C643.519 748.595 648.413 740.306 653.206 732.016C655.204 728.421 657.201 724.926 659.199 721.33C659.898 720.132 660.497 719.033 661.196 717.835C662.494 715.438 663.793 713.141 665.091 710.744C666.489 708.147 667.987 705.551 669.286 702.854C672.082 697.861 674.679 692.867 677.375 687.874C679.073 684.678 680.871 681.382 682.569 678.186C711.331 624.256 741.093 568.428 784.038 521.388C787.134 518.093 790.23 514.897 793.425 511.701C796.621 508.605 799.817 505.509 803.213 502.513C806.009 499.916 808.905 497.419 811.902 495.023C835.658 475.459 862.307 460.284 890.454 450.197C890.481 450.187 890.5 450.161 890.5 450.131C890.5 450.101 890.519 450.074 890.548 450.065C892.328 449.469 894.011 448.778 895.793 448.283C898.49 447.284 901.186 446.485 903.883 445.686C905.081 445.287 906.38 444.887 907.678 444.588C911.173 443.589 914.769 442.59 918.364 441.791C923.058 440.593 927.752 439.694 932.446 438.795C936.141 438.196 939.836 437.597 943.532 437.097C944.131 436.997 944.73 436.898 945.329 436.898C948.525 436.498 951.721 436.099 954.917 435.899C956.015 435.699 957.214 435.699 958.412 435.5C962.307 435.3 966.302 435.1 970.297 435H971.595C975.091 435.1 978.686 435.2 982.182 435.5C984.379 435.699 986.576 435.899 988.673 435.999C992.169 436.298 995.564 436.698 999.06 437.197C1001.26 437.484 1003.55 437.771 1005.76 438.234C1005.95 438.275 1006.14 438.289 1006.33 438.302C1006.76 438.33 1007.17 438.523 1007.59 438.581C1009.63 438.864 1011.67 439.227 1013.63 439.669C1013.7 439.685 1013.81 439.692 1013.88 439.696C1014.09 439.706 1014.25 439.815 1014.44 439.855C1017.35 440.434 1020.33 441.016 1023.23 441.691C1026.62 442.49 1030.02 443.389 1033.42 444.388C1039.91 446.086 1046.2 448.183 1052.39 450.48C1053.59 450.88 1054.69 451.279 1055.89 451.778C1064.78 455.174 1073.56 459.069 1082.05 463.463C1084.55 464.762 1087.05 466.06 1089.54 467.458C1094.14 469.955 1098.63 472.651 1103.03 475.548C1105.52 477.046 1108.12 478.743 1110.62 480.541C1112.51 481.74 1114.41 483.038 1116.21 484.436C1117.51 485.335 1118.71 486.234 1120 487.233C1125.1 490.928 1130.09 494.923 1134.98 499.217C1136.28 500.316 1137.48 501.414 1138.68 502.513C1142.08 505.509 1145.27 508.605 1148.47 511.701C1151.76 514.897 1154.86 518.093 1157.85 521.388C1189.51 556.044 1211.39 596.491 1232.56 635.641C1235.75 641.533 1238.95 647.426 1242.05 653.118C1242.35 653.618 1242.65 654.117 1242.85 654.616C1245.04 658.611 1247.24 662.506 1249.54 666.401C1251.93 670.796 1254.43 675.19 1257.03 679.484C1261.82 687.574 1266.71 695.564 1272.01 703.254C1273.01 704.852 1274.1 706.449 1275.2 708.047C1324.54 779.255 1377.77 835.383 1425.31 866.343C1450.3 882.578 1438.8 921.372 1409 921.372H1225.83C1219.99 921.372 1214.28 919.672 1209.39 916.478C1201 910.985 1193.01 905.093 1185.22 898.901C1177.43 892.709 1170.04 886.118 1163.05 879.227C1120.5 837.98 1089.14 786.746 1063.38 739.507C1057.38 728.521 1051.49 717.535 1045.5 706.449C1017.24 653.418 990.571 603.283 952.62 561.836C945.329 553.947 937.639 546.556 929.35 539.965C926.23 537.364 927.02 532.448 930.918 531.306C943.965 527.485 957.414 525.291 970.996 524.884C978.057 525.073 985.078 525.779 992.034 526.953C999.978 528.293 1007.02 532.72 1012.11 538.969C1047.16 582.065 1073.14 630.862 1098.43 678.186C1104.22 689.072 1110.02 699.958 1115.91 710.744C1117.81 714.24 1119.8 717.835 1121.8 721.33C1123.8 724.926 1125.8 728.421 1127.79 732.016C1132.59 740.306 1137.48 748.595 1142.57 756.685C1144.37 759.781 1146.37 762.777 1148.27 765.673C1156.86 779.056 1165.94 791.939 1175.73 804.123C1177.93 807.02 1180.23 809.816 1182.62 812.612C1184.72 815.209 1186.92 817.706 1189.21 820.203C1192.61 823.998 1196.01 827.693 1199.7 831.288C1202.1 833.885 1204.69 836.382 1207.29 838.779C1210.19 841.575 1213.18 844.272 1216.18 846.768C1219.04 849.43 1221.99 851.8 1225.05 854.07C1225.13 854.129 1225.24 854.233 1225.31 854.302C1225.65 854.631 1226.06 854.824 1226.43 855.123C1227.85 856.288 1229.27 857.389 1230.7 858.447C1233.43 860.462 1236.77 861.45 1240.16 861.45H1323.49C1324.06 861.45 1324.35 860.756 1323.94 860.351C1319.35 855.857 1314.75 851.163 1310.36 846.569C1306.06 842.174 1301.87 837.68 1297.67 833.086C1297.17 832.487 1296.68 831.987 1296.18 831.388C1291.58 826.295 1287.09 821.201 1282.69 816.008C1279.7 812.512 1276.8 809.017 1273.9 805.522C1271.01 802.026 1268.21 798.63 1265.42 795.135C1262.62 791.739 1259.92 788.244 1257.33 784.848C1254.63 781.453 1252.03 778.057 1249.54 774.762C1243.84 767.171 1238.45 759.781 1233.36 752.69C1230.76 749.094 1228.36 745.599 1225.97 742.203C1220.47 734.214 1215.18 726.124 1210.19 717.835C1207.09 712.841 1204.19 707.848 1201.3 702.854C1198.4 697.861 1195.61 692.867 1192.81 687.874C1188.42 679.884 1184.12 671.994 1179.83 664.104C1176.03 657.013 1172.24 650.122 1168.44 643.231C1164.65 636.34 1160.85 629.649 1156.96 622.957C1152.66 615.467 1148.17 608.176 1143.47 601.086C1141.88 598.589 1140.18 596.092 1138.58 593.695C1137.88 592.697 1137.18 591.698 1136.48 590.699C1134.58 587.903 1132.69 585.206 1130.69 582.609C1127.59 578.515 1124.5 574.42 1121.1 570.525C1118.71 567.529 1116.21 564.633 1113.61 561.836C1106.52 554.046 1098.93 546.955 1090.94 540.464C1085.65 536.169 1080.26 532.075 1074.56 528.379C1069.47 524.984 1064.28 521.888 1058.98 518.992C1057.68 518.193 1056.39 517.593 1054.99 516.894C1054.37 516.481 1053.66 516.212 1053 515.862C1052.45 515.564 1051.88 515.275 1051.29 515.005C1050.83 514.792 1050.37 514.505 1049.9 514.304C1049.49 514.127 1049.09 513.996 1048.69 513.798C1047.89 513.402 1047.1 513.019 1046.3 512.7C1044.6 511.901 1042.9 511.102 1041.21 510.403C1040.55 510.027 1039.8 509.739 1039.13 509.457C1039.05 509.422 1039.02 509.408 1038.94 509.387C1038.7 509.329 1038.39 509.25 1038.17 509.147C1036.78 508.515 1035.4 507.968 1034.01 507.506C1032.62 506.907 1031.12 506.408 1029.62 505.809C1017.74 501.714 1005.65 498.718 993.267 496.92C991.17 496.521 989.073 496.321 986.876 496.121C984.279 495.722 981.582 495.522 978.886 495.322C975.99 495.122 973.193 495.022 970.297 494.923C969.495 494.923 968.695 495.036 967.894 495.071C941.253 496.226 914.928 503.087 890.636 515.079C890.619 515.087 890.6 515.075 890.6 515.057C890.6 515.035 890.573 515.024 890.557 515.039L890.507 515.09C890.503 515.094 890.497 515.098 890.491 515.101C888.896 515.799 887.401 516.596 885.906 517.394C885.307 517.693 884.608 518.093 883.909 518.392C881.911 519.491 879.814 520.689 877.816 521.888C859.64 532.374 842.862 545.857 828.28 561.836C825.584 564.832 822.987 567.729 820.391 570.825C816.895 574.82 813.599 578.914 810.404 583.109C808.306 585.606 806.409 588.202 804.511 590.799C800.816 595.593 797.32 600.586 793.925 605.68C790.329 610.773 786.934 616.066 783.638 621.359C780.143 626.653 776.847 632.046 773.751 637.439C770.355 642.832 767.159 648.325 764.163 653.917C760.867 659.41 757.771 665.003 754.775 670.696C751.48 676.388 748.384 682.081 745.387 687.874C742.691 692.767 739.994 697.761 737.298 702.854C736.699 703.953 736 705.151 735.4 706.35C733.403 710.145 731.306 714.04 729.208 717.835C725.413 725.125 721.518 732.316 717.623 739.507C683.168 802.425 638.925 872.735 571.612 916.478C566.724 919.672 561.012 921.372 555.174 921.372L371.999 921.372C342.202 921.372 330.705 882.578 355.691 866.343C406.625 833.186 462.553 774.262 505.297 708.747C509.492 702.355 513.687 695.464 517.881 688.273C522.076 680.983 526.37 673.292 530.765 665.403C533.661 660.109 536.557 654.816 539.553 649.323C562.623 606.978 588.79 558.94 623.145 521.388C671.782 468.057 739.695 436.598 809.305 435H810.703C814.598 435.1 818.593 435.3 822.488 435.5C823.786 435.699 825.085 435.799 826.383 435.899C829.379 436.099 832.375 436.498 835.371 436.898C836.17 436.898 836.969 436.997 837.668 437.097C839.673 437.398 840.086 439.996 838.31 440.975C810.114 456.523 784.134 476.886 761.866 501.315C760.888 502.293 759.757 503.122 758.437 503.534C724.257 514.188 692.557 534.219 667.388 561.836C656.402 573.921 646.215 587.503 636.628 601.884C634.231 605.48 631.834 609.075 629.537 612.771C624.843 620.161 620.249 627.751 615.855 635.341C613.658 639.236 611.46 643.031 609.263 646.926C603.471 657.313 597.778 667.7 592.185 677.986C579.701 700.857 567.917 722.529 555.533 741.504C551.937 746.997 548.242 752.49 544.447 757.883C540.452 763.776 536.257 769.568 531.963 775.261C528.967 779.355 525.971 783.35 522.875 787.345C511.19 802.326 499.006 816.807 486.522 830.489C483.326 834.085 480.03 837.58 476.834 840.976C476.235 841.575 475.636 842.174 475.037 842.774C472.24 845.67 469.444 848.566 466.747 851.362Z" fill="white"/>
<path d="M1314.25 931.551C1317.91 927.787 1315.38 921.464 1310.13 921.464H1244.39C1238.23 921.464 1232.17 923.212 1227.36 927.057C1223.07 930.252 1218.98 933.648 1214.88 937.343C1212.61 939.235 1210.34 941.216 1208.16 943.371C1207.91 943.611 1207.66 943.773 1207.4 943.994C1207.19 944.171 1206.99 944.426 1206.78 944.61C1204.3 946.83 1202 949.228 1199.7 951.625C1196.11 955.22 1192.61 958.915 1189.21 962.711C1186.92 965.207 1184.72 967.704 1182.62 970.301C1180.23 973.097 1177.93 975.894 1175.73 978.79C1173.63 981.287 1171.64 983.883 1169.64 986.48C1167.24 989.676 1164.85 992.872 1162.55 996.167C1160.65 998.764 1158.75 1001.46 1156.96 1004.16C1153.96 1008.45 1151.06 1012.75 1148.27 1017.24C1146.27 1020.24 1144.37 1023.23 1142.47 1026.23C1137.48 1034.32 1132.59 1042.61 1127.79 1050.9C1125.8 1054.49 1123.8 1057.99 1121.8 1061.58C1121.1 1062.78 1120.5 1063.88 1119.8 1065.08C1118.51 1067.48 1117.21 1069.77 1115.91 1072.17C1114.51 1074.77 1113.01 1077.36 1111.71 1080.06C1108.92 1085.05 1106.32 1090.05 1103.62 1095.04C1101.93 1098.24 1100.13 1101.53 1098.43 1104.73C1069.67 1158.66 1039.91 1214.49 996.962 1261.52C993.866 1264.82 990.77 1268.02 987.575 1271.21C984.379 1274.31 981.183 1277.4 977.787 1280.4C974.991 1283 972.095 1285.49 969.098 1287.89C945.342 1307.45 918.693 1322.63 890.546 1332.72C890.519 1332.73 890.5 1332.75 890.5 1332.78C890.5 1332.81 890.481 1332.84 890.452 1332.85C888.672 1333.44 886.989 1334.14 885.207 1334.63C882.51 1335.63 879.814 1336.43 877.117 1337.23C875.919 1337.63 874.62 1338.03 873.322 1338.33C869.827 1339.32 866.231 1340.32 862.636 1341.12C857.942 1342.32 853.248 1343.22 848.554 1344.12C844.859 1344.72 841.164 1345.32 837.468 1345.82C836.869 1345.92 836.27 1346.02 835.671 1346.02C832.475 1346.42 829.279 1346.81 826.083 1347.01C824.985 1347.21 823.786 1347.21 822.588 1347.41C818.693 1347.61 814.698 1347.81 810.703 1347.91H809.405C805.909 1347.81 802.314 1347.71 798.818 1347.41C796.621 1347.21 794.424 1347.01 792.327 1346.91C788.831 1346.61 785.436 1346.22 781.94 1345.72C779.739 1345.43 777.447 1345.14 775.238 1344.68C775.046 1344.64 774.862 1344.62 774.666 1344.61C774.245 1344.58 773.833 1344.39 773.415 1344.33C771.369 1344.05 769.331 1343.69 767.371 1343.24C767.297 1343.23 767.193 1343.22 767.117 1343.22C766.915 1343.21 766.754 1343.1 766.555 1343.06C763.654 1342.48 760.666 1341.9 757.771 1341.22C754.376 1340.42 750.98 1339.52 747.585 1338.53C741.093 1336.83 734.801 1334.73 728.609 1332.43C727.411 1332.03 726.312 1331.63 725.114 1331.14C716.225 1327.74 707.436 1323.84 698.947 1319.45C696.451 1318.15 693.954 1316.85 691.457 1315.46C686.863 1312.96 682.369 1310.26 677.974 1307.37C675.478 1305.87 672.881 1304.17 670.384 1302.37C668.487 1301.17 666.589 1299.88 664.791 1298.48C663.493 1297.58 662.295 1296.68 660.996 1295.68C655.903 1291.99 650.909 1287.99 646.016 1283.7C644.717 1282.6 643.519 1281.5 642.32 1280.4C638.925 1277.4 635.729 1274.31 632.533 1271.21C629.237 1268.02 626.141 1264.82 623.145 1261.52C591.486 1226.87 569.614 1186.42 548.442 1147.27C545.246 1141.38 542.05 1135.49 538.954 1129.79C538.654 1129.3 538.355 1128.8 538.155 1128.3C535.958 1124.3 533.761 1120.41 531.464 1116.51C529.067 1112.12 526.57 1107.72 523.973 1103.43C519.179 1095.34 514.286 1087.35 508.993 1079.66C507.994 1078.06 506.895 1076.46 505.797 1074.87C456.46 1003.66 403.229 947.53 355.691 916.57C330.705 900.335 342.202 861.541 371.999 861.541H555.174C561.012 861.541 566.724 863.242 571.612 866.435C580.001 871.928 587.991 877.82 595.781 884.012C603.57 890.204 610.961 896.796 617.952 903.687C660.497 944.933 691.856 996.168 717.623 1043.41C723.615 1054.39 729.508 1065.38 735.5 1076.46C763.764 1129.5 790.429 1179.63 828.38 1221.08C835.671 1228.97 843.361 1236.36 851.65 1242.95C854.77 1245.55 853.98 1250.47 850.082 1251.61C837.035 1255.43 823.586 1257.62 810.004 1258.03C802.943 1257.84 795.922 1257.13 788.966 1255.96C781.022 1254.62 773.978 1250.19 768.894 1243.94C733.84 1200.85 707.858 1152.05 682.568 1104.73C676.776 1093.84 670.983 1082.96 665.091 1072.17C663.194 1068.67 661.196 1065.08 659.199 1061.58C657.201 1057.99 655.204 1054.49 653.206 1050.9C648.413 1042.61 643.519 1034.32 638.425 1026.23C636.628 1023.13 634.63 1020.14 632.733 1017.24C624.144 1003.86 615.056 990.974 605.268 978.79C603.071 975.894 600.774 973.097 598.377 970.301C596.28 967.704 594.083 965.207 591.786 962.711C588.39 958.915 584.995 955.22 581.299 951.625C578.902 949.028 576.306 946.532 573.709 944.135C570.813 941.338 567.817 938.642 564.82 936.145C561.961 933.483 559.005 931.113 555.951 928.843C555.872 928.784 555.759 928.681 555.688 928.612C555.352 928.282 554.935 928.089 554.571 927.79C553.152 926.625 551.731 925.524 550.298 924.466C547.568 922.451 544.231 921.464 540.838 921.464H457.515C456.941 921.464 456.654 922.157 457.06 922.563C461.654 927.057 466.248 931.751 470.642 936.345C474.937 940.739 479.131 945.233 483.326 949.827C483.825 950.426 484.324 950.926 484.824 951.525C489.418 956.618 493.912 961.712 498.306 966.905C501.302 970.401 504.199 973.896 507.095 977.392C509.991 980.887 512.788 984.283 515.584 987.778C518.38 991.174 521.077 994.669 523.674 998.065C526.37 1001.46 528.967 1004.86 531.464 1008.15C537.156 1015.74 542.549 1023.13 547.643 1030.22C550.239 1033.82 552.636 1037.31 555.033 1040.71C560.526 1048.7 565.819 1056.79 570.813 1065.08C573.909 1070.07 576.805 1075.07 579.701 1080.06C582.598 1085.05 585.394 1090.05 588.19 1095.04C592.585 1103.03 596.879 1110.92 601.174 1118.81C604.969 1125.9 608.764 1132.79 612.559 1139.68C616.354 1146.57 620.149 1153.26 624.044 1159.96C628.339 1167.45 632.833 1174.74 637.527 1181.83C639.125 1184.32 640.822 1186.82 642.42 1189.22C643.119 1190.22 643.818 1191.22 644.518 1192.21C646.415 1195.01 648.313 1197.71 650.31 1200.3C653.406 1204.4 656.502 1208.49 659.898 1212.39C662.295 1215.38 664.791 1218.28 667.388 1221.08C674.479 1228.87 682.069 1235.96 690.059 1242.45C695.352 1246.74 700.745 1250.84 706.438 1254.53C711.531 1257.93 716.724 1261.03 722.018 1263.92C723.316 1264.72 724.614 1265.32 726.012 1266.02C726.632 1266.43 727.338 1266.7 727.996 1267.05C728.554 1267.35 729.119 1267.64 729.705 1267.91C730.167 1268.12 730.632 1268.41 731.1 1268.61C731.51 1268.79 731.906 1268.92 732.307 1269.12C733.105 1269.51 733.903 1269.89 734.701 1270.21C736.399 1271.01 738.097 1271.81 739.795 1272.51C740.453 1272.89 741.199 1273.17 741.867 1273.46C741.95 1273.49 741.975 1273.51 742.063 1273.53C742.303 1273.58 742.607 1273.66 742.831 1273.77C744.216 1274.4 745.601 1274.95 746.985 1275.41C748.383 1276.01 749.882 1276.51 751.38 1277.1C763.264 1281.2 775.349 1284.2 787.733 1285.99C789.83 1286.39 791.927 1286.59 794.124 1286.79C796.721 1287.19 799.418 1287.39 802.114 1287.59C805.01 1287.79 807.807 1287.89 810.703 1287.99C811.505 1287.99 812.305 1287.88 813.106 1287.84C839.747 1286.69 866.072 1279.83 890.364 1267.83C890.381 1267.83 890.4 1267.84 890.4 1267.86C890.4 1267.88 890.427 1267.89 890.443 1267.87L890.493 1267.82C890.498 1267.82 890.503 1267.82 890.509 1267.81C892.104 1267.11 893.599 1266.32 895.094 1265.52C895.693 1265.22 896.392 1264.82 897.091 1264.52C899.089 1263.42 901.186 1262.22 903.184 1261.03C921.36 1250.54 938.138 1237.06 952.72 1221.08C955.416 1218.08 958.013 1215.18 960.609 1212.09C964.105 1208.09 967.401 1204 970.596 1199.8C972.694 1197.31 974.591 1194.71 976.489 1192.11C980.184 1187.32 983.68 1182.33 987.075 1177.23C990.671 1172.14 994.066 1166.85 997.362 1161.55C1000.86 1156.26 1004.15 1150.87 1007.25 1145.47C1010.64 1140.08 1013.84 1134.59 1016.84 1129C1020.13 1123.5 1023.23 1117.91 1026.22 1112.22C1029.52 1106.52 1032.62 1100.83 1035.61 1095.04C1038.31 1090.15 1041.01 1085.15 1043.7 1080.06C1044.3 1078.96 1045 1077.76 1045.6 1076.56C1047.6 1072.77 1049.69 1068.87 1051.79 1065.08C1055.59 1057.79 1059.48 1050.6 1063.38 1043.41C1097.83 980.488 1142.08 910.179 1209.39 866.435C1214.28 863.242 1219.99 861.541 1225.83 861.541L1409 861.541C1438.8 861.541 1450.29 900.335 1425.31 916.57C1374.38 949.727 1318.45 1008.65 1275.7 1074.17C1271.51 1080.56 1267.31 1087.45 1263.12 1094.64C1258.92 1101.93 1254.63 1109.62 1250.24 1117.51C1247.34 1122.8 1244.44 1128.1 1241.45 1133.59C1218.38 1175.94 1192.21 1223.97 1157.85 1261.52C1109.22 1314.86 1041.31 1346.32 971.695 1347.91H970.297C966.402 1347.81 962.407 1347.61 958.512 1347.41C957.214 1347.21 955.916 1347.11 954.617 1347.01C951.621 1346.81 948.625 1346.42 945.629 1346.02C944.83 1346.02 944.031 1345.92 943.332 1345.82C941.327 1345.52 940.914 1342.92 942.69 1341.94C970.886 1326.39 996.866 1306.03 1019.13 1281.6C1020.11 1280.62 1021.24 1279.79 1022.56 1279.38C1056.74 1268.72 1088.44 1248.69 1113.61 1221.08C1124.6 1208.99 1134.78 1195.41 1144.37 1181.03C1146.77 1177.43 1149.17 1173.84 1151.46 1170.14C1156.16 1162.75 1160.75 1155.16 1165.15 1147.57C1167.34 1143.68 1169.54 1139.88 1171.74 1135.99C1177.53 1125.6 1183.22 1115.21 1188.81 1104.93C1201.3 1082.06 1213.08 1060.38 1225.47 1041.41C1229.06 1035.92 1232.76 1030.42 1236.55 1025.03C1240.55 1019.14 1244.74 1013.35 1249.04 1007.65C1252.03 1003.56 1255.03 999.563 1258.13 995.568C1269.81 980.588 1281.99 966.106 1294.48 952.424C1297.67 948.828 1300.97 945.333 1304.17 941.938C1304.77 941.338 1305.36 940.739 1305.96 940.14C1308.76 937.243 1311.56 934.347 1314.25 931.551Z" fill="white"/>
</svg>
